PathFileType	4	(X/Y/Z)	pose_F01_0-94.trc
DataRate	CameraRate	NumFrames	NumMarkers	Units	OrigDataRate	OrigDataStartFrame	OrigNumFrames
30	30	14	21	m	30	37	94
Frame#	Time	CHip			RHip			RKnee			RAnkle			RBigToe			RSmallToe			RHeel			LHip			LKnee			LAnkle			LBigToe			LSmallToe			LHeel			Neck			Nose			RShoulder			RElbow			RWrist			LShoulder			LElbow			LWrist			
		X1	Y1	Z1	X2	Y2	Z2	X3	Y3	Z3	X4	Y4	Z4	X5	Y5	Z5	X6	Y6	Z6	X7	Y7	Z7	X8	Y8	Z8	X9	Y9	Z9	X10	Y10	Z10	X11	Y11	Z11	X12	Y12	Z12	X13	Y13	Z13	X14	Y14	Z14	X15	Y15	Z15	X16	Y16	Z16	X17	Y17	Z17	X18	Y18	Z18	X19	Y19	Z19	X20	Y20	Z20	X21	Y21	Z21	
37	1.2333333333333334	-0.25783692138622105	1.8879986226150605	-0.6088753156837357	-0.2732020695890676	1.8827121648745175	-0.5411014184512575																-0.2408459437468648	1.889505810107195	-0.6763406678206404	-0.24801618151157998	1.7338041496375094	-0.6726821130599183													-0.2587289604996711	2.055546856669362	-0.6304247666168973	-0.24314254088990772	2.1255163674920095	-0.6060412553587798	-0.2854691423446261	2.0497333805971114	-0.5394756027537936	-0.31366745663084805	1.9877774951799672	-0.41564181835522374	-0.34107779432118124	1.938933363339332	-0.2829110031677488	-0.2341864540131281	2.0625291657006346	-0.7197572530934836	-0.2008385598905071	2.012056818116973	-0.84861754712794	-0.15958263560056102	1.9638331219054674	-0.9832395907500131
38	1.2666666666666666	-0.2568784050443902	1.884302079148461	-0.6052573323310433	-0.27247161934653835	1.8792596002665354	-0.5375527406598967																-0.23798495455548793	1.8872213019966897	-0.6751975122408692	-0.2478690241366418	1.7331753369161873	-0.6726133501499874													-0.25869922991040273	2.0556547540684083	-0.6304579822785241	-0.24316863228299884	2.124200097131643	-0.6055024602317585	-0.28452547254466765	2.0496028546837697	-0.5364923352563505	-0.3118996481887735	1.9936634206417705	-0.41236556874877217	-0.33842192341032956	1.9452974896642279	-0.2712858842803156	-0.23292441334680547	2.062786877660499	-0.7248206859156394	-0.19817543802484514	2.0179885757206337	-0.8509726028395284	-0.15035896671234597	1.970847976690825	-0.9848095037942296
39	1.3	-0.25765983665530723	1.8803531040293853	-0.6078926883573003	-0.2722402774012467	1.8743063328125162	-0.5368598573317456																-0.23855194266167623	1.8849736613766916	-0.6779898387417695	-0.24751161669748367	1.7326688152041383	-0.6729461841605465													-0.2586850745569316	2.0556286758068785	-0.6303917294313895	-0.24312566543445524	2.124319592586352	-0.6055218682211646	-0.2844756549252855	2.0484064493269494	-0.5359971087876426	-0.31689273928417727	1.9924530309612232	-0.4113884253464949	-0.34384933080480856	1.9456868567135255	-0.27908202167499424	-0.23207753173136716	2.0626734825093025	-0.7218236157393592	-0.19653164166758058	2.017067293955204	-0.8446129984729706	-0.15107551235097155	1.9677408861739745	-0.9759659132436597
40	1.3333333333333333	-0.25706354775808016	1.8826761897841706	-0.6050766643793853	-0.27254305494792047	1.8767266394986863	-0.5371670317920113																-0.24008344782872096	1.8863736275262417	-0.6730063863913819	-0.24715420925832554	1.7321622934920893	-0.6732790181711056													-0.25866719152552425	2.05562480780348	-0.6304273442808209	-0.24321634343100162	2.1231505709911698	-0.6057336598010984	-0.2824727782370135	2.048375913327673	-0.5381345911525555	-0.3142250291412221	1.9852920205087319	-0.4170618034269124	-0.3415676849983422	1.931133046457838	-0.28349333813059513	-0.23418528921599815	2.062507516232255	-0.7197571315828721	-0.19452043110262066	2.0075869732664713	-0.8350400023878112	-0.14920673079091715	1.9525038275385551	-0.9519987078202894
41	1.3666666666666667	-0.25778660374123363	1.8842232220961737	-0.6083464262366034	-0.273269745451665	1.8779503412020735	-0.5404298422124038																-0.2409155747937266	1.8868299818013403	-0.6760819023050447	-0.2467968018191674	1.7316557717800403	-0.6736118521816647													-0.25958532954364216	2.055696742096713	-0.6334624828155844	-0.24405569440990058	2.1242584549003882	-0.6083996564715766	-0.2834329247945245	2.049670387301592	-0.5417083901890085	-0.3035022862139083	1.9756915691059158	-0.44578872268782077	-0.31842547369467356	1.9114527283189577	-0.3357362057610751	-0.23508951385434962	2.0627360817931466	-0.7226793607318118	-0.20746684485871833	1.9940752646780735	-0.8143647247754701	-0.9505445722883913	1.8289664168355786	-0.1555540177620125
42	1.4	-0.2565691780679125	1.8813328647495426	-0.6050031997151308	-0.27020092823107283	1.8765856292196235	-0.5393557626058724																-0.23854955191307928	1.8844478180268076	-0.6779237575668684	-0.24643939438000928	1.7311492500679915	-0.6739446861922239													-0.2595989907507866	2.055615068417303	-0.6334434248671907	-0.24410911804754623	2.1232211622962534	-0.6085639730176841	-0.28347680008734816	2.0497568412603946	-0.5416872941413144	-0.2994813046763514	1.9686035132031876	-0.4717487196541681	-0.3060197089054432	1.8975236455830273	-0.39413068637698995	-0.23520817255354787	2.060159574203858	-0.72242630113993	-0.21357877997627944	1.9814766366742198	-0.7912441004935102	-1.010102821821774	1.811589455633724	-0.05953897855826183
43	1.4333333333333333	-0.2577139879127229	1.8828573925551972	-0.6081825135325439	-0.2743400773419967	1.8778942233528595	-0.5352124545143458																-0.24056283711169477	1.8857918312720223	-0.6759807668283265	-0.24608198694085115	1.7306427283559425	-0.674277520202783													-0.25959388867452393	2.0544111340341953	-0.6329259315259509	-0.24321017437154024	2.1230539222285247	-0.6057087558141376	-0.2825422936064686	2.0495919071443307	-0.5386365697740993	-1.6480682379430267	1.873202360162818	0.9641952494870389	-0.2933165569202971	1.8857433679839848	-0.45010693710149263	-0.23521851218627227	2.0588656053441836	-0.722072747575216	-0.22526082175651488	1.9742868296478882	-0.759596962305622	-0.21333908660837061	1.891431032307328	-0.7957752907146931
44	1.4666666666666666	-0.25708858685345426	1.8845863489104282	-0.6052330734183252	-0.2725424078267861	1.8793619037619933	-0.5372862447237612																-0.23798844288771587	1.8877856927521863	-0.6751417710774437	-0.24572457950169302	1.7301362066438934	-0.6746103542133421													-0.25980977491051405	2.054375965130556	-0.6335225930033248	-0.24319730168604528	2.1229112943726816	-0.6056410959000347	-0.28561034535331875	2.0497508697265383	-0.5400780993120192	-1.6418492905286934	1.8720586540072408	0.95417930139006	-0.296641686073028	1.880680161873334	-0.4555277460240208	-0.23608967417618465	2.0602111572908375	-0.7253780011225988	-0.2289741483784114	1.9758097884142114	-0.7521933835536275	-0.22315558858214626	1.8959661549733198	-0.7558894501232037
45	1.5	-0.2581516872858816	1.8815633043743023	-0.6080486387106646	-0.2747645912421111	1.877024493691027	-0.5351531001860471																-0.24113963257764887	1.885340695189966	-0.6759058757198924	-0.24783958874150486	1.7327886882549737	-0.6726600884165786													-0.25978476435919323	2.0530638556751164	-0.6330593185619917	-0.24321180384275923	2.1216015384579916	-0.6051019910997326	-0.285553471483111	2.0484595572652333	-0.5396423479936717	-1.6356303431143602	1.8709149478516638	0.9441633532930811	-0.2999668152257588	1.8756169557626832	-0.460948554946549	-0.23607459302629247	2.058914670278444	-0.7249267993298147	-0.22751041555795168	1.972104033246537	-0.7570098940677554	-0.2169232926961886	1.8898335612224852	-0.7650329896998869
46	1.5333333333333334	-0.25853608500896985	1.8835832704080722	-0.6114171487872359	-0.2712655595828663	1.8788800388056004	-0.5426347280025349																-0.23945234728386175	1.8860986224372327	-0.6811030445630104	-0.2476549124432756	1.732584139033952	-0.672838028266976													-0.25954542515591444	2.0544885848599614	-0.6330628232053623	-0.24322298911120002	2.122867089905483	-0.6055953302779001	-0.28344564486278195	2.049708279406441	-0.541807953071894	-0.30442308263063306	1.9721327329903646	-0.47918107534475635	-0.3191546580133459	1.9032899335647913	-0.39526135671030344	-0.2350644114465086	2.0601600255417383	-0.7219485516682359	-0.21440003032564217	1.9794004581601836	-0.7737112960593956	-0.19448189747048808	1.9133027258446313	-0.8142447161927843
47	1.5666666666666667	-0.2576535907297466	1.8833982440944628	-0.6081953307121335	-0.27126523514101736	1.8784629989706756	-0.542592424226415																-0.2406350896010447	1.8868543205792918	-0.6760221481611715	-0.24747023614504635	1.7323795898129306	-0.6730159681173734													-0.259663068234407	2.055647769682854	-0.6335383874864761	-0.24322182881320775	2.1229192903811764	-0.6056422299391439	-0.2835300122923542	2.0510656574724573	-0.5422792324821013	-0.30860153559014825	1.9837625551648534	-0.45447241426071006	-0.32851608996431086	1.92506284053774	-0.3532372189831612	-0.23523495489205865	2.060112535181865	-0.7225216418148191	-0.20528159322746306	1.9908180166776113	-0.8066350897234672	-0.9900105340395497	1.8089497485053019	-0.10469823472825554
48	1.6	-0.2576411121493245	1.8868447188708435	-0.6088633423279564	-0.2711470217910745	1.8807701627012532	-0.5430744001059874																-0.23872259567898427	1.8898957072383908	-0.6785668373067174	-0.24728555984681708	1.732175040591909	-0.6731939079677708													-0.25955830939850727	2.0544876123032836	-0.6330153230781519	-0.24324843858918924	2.1228461868924726	-0.6056369279555215	-0.28542643988051325	2.0497201097496585	-0.5395113030561812	-0.31541999742333093	1.9885599017775344	-0.4211880074606082	-0.34400889688639325	1.9370642486327276	-0.2913009802982112	-0.2329473337990928	2.061489639225662	-0.7244837410898918	-0.20005097168589164	2.0030883907626515	-0.8327879577742578	-0.9224927343968066	1.8425133990942397	-0.2096107647079659
49	1.6333333333333333	-0.2576235434997257	1.8826298591134423	-0.6082817762791353	-0.27117741206929735	1.8764069633778728	-0.5424544181429316																-0.23851356208550636	1.8873636056575005	-0.6782040400230603	-0.2471008835485878	1.7319704913708875	-0.6733718478181682													-0.25960877040260755	2.055717937563782	-0.6334291479060183	-0.24322957299608106	2.1229205265500317	-0.6057001097868998	-0.2854712545630688	2.049758588342288	-0.5394783743454252	-0.3134987178093273	1.9980957580358825	-0.41061622193641506	-0.34469339194268334	1.9549709267675295	-0.2699996812363714	-0.23295588589393762	2.062735842750549	-0.7248590582061832	-0.19506829234052347	2.0123956788773767	-0.8493399730138367	-0.15140508747331208	1.9643560307599401	-0.9758044441108031
50	1.6666666666666667	-0.2577403390200881	1.8844722067274207	-0.6084514019193601	-0.2713543576801189	1.8795938230650928	-0.542826683362985																-0.23881877275247526	1.8875997654186918	-0.6782528880193652	-0.24691620725035854	1.731765942149866	-0.6735497876685655													-0.2596236888678698	2.0556627615136844	-0.633477625281465	-0.24323923696782726	2.12287974822422	-0.6056898095489055	-0.28548818089636463	2.049614725703412	-0.5395323469882031	-0.3143163073548428	2.0016386708464817	-0.4062792666380812	-0.3457624453197873	1.960820983757586	-0.2606383584144688	-0.23298107119577088	2.0627280682544518	-0.7249644800062358	-0.1943006751346428	2.017518394168846	-0.8584428941780992	-0.14858198845317244	1.9705991582822766	-0.990092678326555
